<mxfile host="app.diagrams.net" modified="2024-05-02T03:27:16.873Z" agent="Mozilla/5.0 (Windows NT 10.0; Win64; x64) AppleWebKit/537.36 (KHTML, like Gecko) Chrome/123.0.0.0 Safari/537.36" etag="H1Yso5FyMle0dp-iVag0" version="24.3.1" type="github">
  <diagram name="Page-1" id="Uo2u7tEG_lrzLejc6Ttq">
    <mxGraphModel dx="1520" dy="522" grid="0" gridSize="10" guides="1" tooltips="1" connect="1" arrows="1" fold="1" page="0" pageScale="1" pageWidth="850" pageHeight="1100" math="0" shadow="0">
      <root>
        <mxCell id="0" />
        <mxCell id="1" parent="0" />
        <mxCell id="rYIxd7MZFAvHpRsqJdDO-1" value="" style="ellipse;whiteSpace=wrap;html=1;" vertex="1" parent="1">
          <mxGeometry x="-1" y="61" width="120" height="80" as="geometry" />
        </mxCell>
        <mxCell id="rYIxd7MZFAvHpRsqJdDO-2" value="" style="shape=parallelogram;perimeter=parallelogramPerimeter;whiteSpace=wrap;html=1;fixedSize=1;" vertex="1" parent="1">
          <mxGeometry x="0.5" y="210" width="117" height="60" as="geometry" />
        </mxCell>
      </root>
    </mxGraphModel>
  </diagram>
</mxfile>
